<svg version="1.1" id="Layer_1" xmlns="http://www.w3.org/2000/svg" xmlns:xlink="http://www.w3.org/1999/xlink" x="0px" y="0px"
	 width="100%" viewBox="0 0 592 592" enable-background="new 0 0 592 592" xml:space="preserve">
<path fill="#FFFFFF" opacity="1.000000" stroke="none" 
	d="
M15.676197,287.970917 
	C16.416763,259.715851 22.410480,232.986298 31.157087,206.726852 
	C38.398415,184.986603 48.215183,164.448242 60.767658,145.422134 
	C70.327156,130.932571 81.132568,117.304665 93.140480,104.531975 
	C111.497108,85.006226 132.192917,68.663498 154.974518,54.852772 
	C175.530258,42.391411 197.703537,33.565712 220.677704,26.603827 
	C235.797195,22.022152 251.246765,19.128229 266.838654,16.951981 
	C271.908173,16.244398 277.135315,15.845596 282.207581,15.898432 
	C290.641418,15.986282 299.035278,15.258842 307.487610,15.359653 
	C337.524780,15.717901 366.409821,21.397814 394.727905,30.961672 
	C426.521729,41.699379 455.439667,57.723278 481.479950,78.723869 
	C500.788300,94.295349 517.637451,112.260971 532.270142,132.478104 
	C556.333069,165.724380 571.964233,202.536331 580.808044,242.349823 
	C583.278320,253.470627 584.497925,264.864655 585.496399,276.279724 
	C586.282654,285.269562 586.043823,294.216095 586.317627,303.180023 
	C586.950806,323.906586 583.738403,344.184906 579.097595,364.277405 
	C570.902039,399.760468 556.566956,432.538086 535.705505,462.445007 
	C523.899414,479.370056 510.808899,495.248962 495.612854,509.168182 
	C468.683746,533.834595 438.276642,553.088196 404.079590,566.262939 
	C383.251862,574.286987 361.792206,579.868774 339.781952,583.107056 
	C320.324860,585.969788 300.593231,586.420166 281.043945,585.069580 
	C247.238922,582.733948 214.679001,574.624573 183.614609,560.808594 
	C163.326660,551.785461 144.744080,540.013855 126.832504,526.978088 
	C116.179893,519.225220 106.453972,510.408264 97.338272,501.095978 
	C79.878258,483.259583 64.771812,463.438751 52.556156,441.588989 
	C35.480984,411.047211 23.726358,378.613586 18.634060,343.890717 
	C16.949221,332.402344 16.053595,320.863922 15.457727,309.255096 
	C15.099073,302.267700 15.953449,295.387848 15.676197,287.970917 
M529.222168,143.289139 
	C517.572388,129.966110 507.608459,115.322853 494.503510,103.076035 
	C481.087280,90.538292 467.162506,78.875053 451.887115,68.800148 
	C434.358307,57.238987 415.618073,48.178379 395.933624,40.724445 
	C369.152191,30.583086 341.515900,25.066231 313.092041,23.436111 
	C294.329071,22.360050 275.524567,23.290382 256.979340,26.488155 
	C232.528824,30.704185 208.946838,38.222748 186.417252,48.453430 
	C159.712357,60.580124 135.063522,75.943184 113.804054,96.643028 
	C102.740120,107.415718 92.027596,118.301483 82.420677,130.425812 
	C71.032089,144.798691 61.111683,160.091385 52.880283,176.346924 
	C44.960304,191.987518 38.442978,208.344467 33.761463,225.313705 
	C29.043348,242.415604 25.421366,259.709564 24.097242,277.487579 
	C23.638300,283.649475 23.749357,289.642151 24.072266,295.780182 
	C24.559244,305.036804 23.372820,314.298462 24.107162,323.653839 
	C25.634262,343.108734 29.567272,362.069061 35.499283,380.521759 
	C42.239170,401.487457 50.750858,421.685486 62.028053,440.845795 
	C77.279114,466.757812 96.177635,489.514496 118.634636,509.118835 
	C139.552872,527.379822 163.058044,542.198364 188.420074,553.623108 
	C204.590485,560.907288 221.484787,566.604187 238.810654,570.497559 
	C262.970734,575.926636 287.375214,578.368164 312.307922,577.138245 
	C327.280823,576.399658 341.949799,574.756470 356.521942,571.635254 
	C383.643585,565.825867 409.384644,556.190674 433.750000,542.994690 
	C448.656616,534.921448 462.446686,525.197632 475.687988,514.541992 
	C489.481720,503.441833 501.808319,490.968994 513.221069,477.571411 
	C527.005798,461.389282 538.790955,443.760101 548.202209,424.697021 
	C556.576050,407.735321 563.559265,390.229584 568.438110,371.826538 
	C575.310425,345.904053 578.622192,319.759796 577.900513,292.906036 
	C577.358032,272.719757 574.807556,252.940155 569.557739,233.530319 
	C563.565063,211.374039 555.653625,189.881210 544.810608,169.600098 
	C540.123108,160.832504 534.707092,152.454407 529.222168,143.289139 
z"/>
<path fill="#FFFFFF" opacity="1.000000" stroke="none" 
	d="
M489.026855,473.976349 
	C475.470367,488.509369 460.603607,501.040649 444.506073,511.966614 
	C427.833984,523.282471 409.768799,532.083679 390.897552,539.235596 
	C371.568207,546.561096 351.584686,550.855042 331.118805,553.474365 
	C316.542511,555.339844 301.907684,556.102600 287.348755,555.131714 
	C260.106964,553.315186 233.613525,547.722900 208.105453,537.526123 
	C187.931610,529.461792 169.004211,519.257996 151.457016,506.560425 
	C143.819656,501.033875 136.747406,494.708252 129.567657,488.571045 
	C111.996864,473.551788 97.934586,455.409363 85.611053,436.124054 
	C76.237267,421.454895 68.820183,405.551361 62.787502,389.093201 
	C56.031113,370.660706 50.983543,351.758636 48.892006,332.282013 
	C44.457455,290.987000 47.972260,250.335968 63.084717,211.432526 
	C74.933548,180.930511 91.384209,153.157608 113.784035,128.702408 
	C136.655182,103.732635 163.427200,84.694977 193.646530,70.261993 
	C216.969299,59.122868 241.597244,51.987640 267.320190,48.557442 
	C284.891510,46.214275 302.547028,45.908714 320.088348,46.935795 
	C345.162659,48.403950 369.524841,54.023075 393.073181,63.089729 
	C412.393890,70.528656 430.737671,79.793579 447.605255,91.732780 
	C465.273804,104.238907 481.054413,118.869431 495.393982,135.177490 
	C509.656921,151.398422 521.136719,169.348938 530.572632,188.617004 
	C541.413635,210.754074 549.206360,233.994995 553.122864,258.384338 
	C556.239197,277.790619 557.484314,297.455627 556.073059,316.995544 
	C553.291443,355.506805 542.928223,391.890137 523.709351,425.730011 
	C513.888550,443.021973 502.481323,458.964600 489.026855,473.976349 
M131.004242,135.000153 
	C131.004242,135.000153 130.980835,134.973770 131.437271,135.460861 
	C142.046539,144.214218 152.432144,153.257675 163.318634,161.651459 
	C178.810883,173.596390 193.861542,186.068115 208.674072,198.818863 
	C220.227417,208.764053 231.130432,219.478577 243.972183,227.843872 
	C247.886429,230.393677 252.117813,231.577957 256.765594,230.094849 
	C260.720245,228.832932 264.675598,227.570312 268.604248,226.230621 
	C279.122070,222.643967 289.633667,219.307846 300.900116,218.619537 
	C314.608337,217.782059 327.216675,221.561813 339.404114,226.995651 
	C346.338654,230.087494 352.521301,228.670486 359.002258,226.098511 
	C367.319244,222.797897 374.128815,217.183777 381.159546,211.951797 
	C391.791473,204.039886 402.892731,196.808289 413.074127,188.217285 
	C422.694824,180.099350 432.001404,171.604584 441.933105,163.820282 
	C450.872284,156.813950 459.001221,148.773834 467.918457,140.804565 
	C464.364441,138.265228 460.560089,137.326218 457.709442,134.771835 
	C445.977570,124.259338 433.833221,114.249664 421.590637,104.322670 
	C403.613403,89.745689 383.004333,81.187500 361.051147,75.224091 
	C355.148926,73.620796 349.083679,72.617943 343.093689,71.337509 
	C341.863953,71.074638 340.777985,70.626343 341.153931,69.057762 
	C341.456512,67.795364 342.614990,67.808464 343.571350,67.803169 
	C344.724365,67.796768 345.879944,68.003120 347.032104,68.137321 
	C354.298767,68.983719 361.291931,71.112144 368.414490,72.625977 
	C394.482697,78.166557 417.746155,89.948608 440.114960,103.893562 
	C447.801910,108.685699 455.383057,113.620262 462.755219,118.619392 
	C421.108948,78.631020 369.007935,63.126369 313.402252,59.787510 
	C238.090988,55.265423 173.687729,82.174019 119.390999,135.255661 
	C116.647972,136.454758 114.459702,138.660202 113.600731,141.209946 
	C110.915611,149.180359 105.054253,155.017242 100.448311,161.640213 
	C88.615784,178.654465 79.463318,196.912628 72.017288,216.246780 
	C61.664970,243.127319 61.379467,271.367584 59.357140,299.410553 
	C58.818008,306.886475 60.626656,314.248962 61.185860,321.669189 
	C62.525661,339.447510 65.949501,356.766327 71.401993,373.713776 
	C78.582062,396.030945 85.855026,418.325653 100.144150,437.407135 
	C105.109734,444.038055 109.222908,451.624451 117.219765,455.190002 
	C119.261543,452.575531 120.884056,450.030609 122.952576,447.923523 
	C138.666168,431.916748 155.861023,417.505432 172.265533,402.259064 
	C190.247574,385.546539 208.703247,369.237335 225.149033,350.898376 
	C227.246857,348.559113 227.538391,346.781189 226.180878,343.909027 
	C219.745239,330.292603 215.355545,316.101715 215.724625,300.830109 
	C215.978195,290.338135 217.361237,280.066711 221.834229,270.358765 
	C223.181747,267.434113 225.246628,264.124115 222.350266,260.703217 
	C219.235641,261.500946 218.874573,264.278870 217.782806,266.379608 
	C216.562027,268.728638 215.683640,271.252747 214.545364,273.647980 
	C208.298401,286.793396 208.371552,300.723114 209.909119,314.673187 
	C210.953522,324.148804 214.615677,332.936035 219.095444,341.343018 
	C219.856781,342.771790 221.219727,344.656311 219.340729,345.760803 
	C217.176163,347.033203 216.166290,344.872864 215.293854,343.256592 
	C214.267044,341.354340 213.404053,339.358124 212.299286,337.504395 
	C201.466461,319.327484 198.091354,299.906830 202.394287,279.157684 
	C204.572479,268.654205 208.667938,258.977631 214.945786,250.380310 
	C187.554993,215.727905 153.797897,188.161484 122.178116,158.357376 
	C119.209213,160.655167 117.007469,162.815399 115.122879,165.411041 
	C108.387505,174.687714 102.649712,184.490097 97.269844,194.647446 
	C89.106178,210.060654 84.181862,226.531647 79.273499,243.042297 
	C74.400528,259.433868 71.782616,276.308624 70.452202,293.335419 
	C69.936356,299.937286 68.618744,306.529572 69.361122,313.205261 
	C69.671158,315.993164 70.762871,318.706299 70.111198,321.582397 
	C69.830276,322.822205 69.196083,323.775238 67.857460,323.887787 
	C66.278442,324.020630 65.782608,322.808929 65.859100,321.619720 
	C66.238220,315.726135 63.916813,310.143280 63.815624,304.368469 
	C63.559608,289.758240 63.278301,275.130127 65.699699,260.618958 
	C68.122841,246.097275 69.785378,231.460709 74.326790,217.323013 
	C78.619148,203.960648 85.239594,191.775375 91.700401,179.437531 
	C99.888100,163.801941 110.361595,149.668701 120.716003,134.854767 
	C124.165886,134.208344 127.597885,134.656555 131.004242,135.000153 
M340.717957,378.445007 
	C328.884918,384.162811 316.327484,386.833984 303.257172,387.301453 
	C290.065002,387.773285 277.735413,383.654572 265.332336,380.023010 
	C257.076935,377.605896 248.904205,375.280029 241.017181,381.039154 
	C223.850266,393.574615 207.974121,407.694092 191.674957,421.291656 
	C176.520584,433.934174 161.746811,447.049866 146.272003,459.282379 
	C140.649094,463.727234 135.370590,469.698212 126.604065,469.592194 
	C129.058289,471.213593 131.467239,471.344055 133.267349,473.094116 
	C137.306396,477.020935 141.771484,480.587555 146.254776,483.899292 
	C164.017365,497.020233 182.587524,508.770111 203.157822,517.318359 
	C221.045853,524.752014 239.450836,530.079346 258.401428,533.575500 
	C279.113251,537.396606 300.108643,537.046570 321.046814,536.572876 
	C328.139587,536.412537 335.323212,535.623413 342.263000,534.161194 
	C370.313629,528.251099 397.544128,520.062988 422.291992,504.916199 
	C437.892334,495.368042 453.673462,486.177185 466.338593,472.646637 
	C468.417694,470.425476 470.329773,467.891632 474.249573,467.067993 
	C472.070282,466.226318 470.779572,465.699249 469.614655,464.672333 
	C462.274384,458.201538 455.110992,451.481110 447.355499,445.539734 
	C425.616608,428.885712 406.127197,409.583374 384.609070,392.693634 
	C376.798798,386.563202 369.548859,379.712036 360.779358,374.774780 
	C355.519623,371.813446 350.824341,371.512604 345.924896,375.047363 
	C344.443298,376.116302 342.915314,377.120941 340.717957,378.445007 
M490.723419,448.303406 
	C492.328949,445.994049 493.737122,443.512939 495.572662,441.403778 
	C506.171265,429.224854 515.879150,416.472626 521.579712,401.160034 
	C523.136108,396.979431 524.176025,392.606903 525.461365,388.324982 
	C531.653137,367.697784 539.266052,347.456451 543.029541,326.163177 
	C546.268616,307.836884 545.102112,289.401276 543.089233,271.062744 
	C541.693237,258.345245 537.796631,246.102112 534.422913,233.801071 
	C529.509644,215.886642 524.653381,197.912140 514.579407,181.959625 
	C512.894043,179.290802 511.134979,176.668472 509.405457,174.027603 
	C507.704315,171.430038 505.997375,168.836243 504.292938,166.240814 
	C504.034424,167.999237 504.639893,169.163239 505.303619,170.293015 
	C515.692444,187.977600 523.695068,206.708252 529.565063,226.334808 
	C534.716675,243.559479 536.707031,261.315674 538.458130,279.153931 
	C540.076477,295.640198 539.145264,311.960022 537.282043,328.313080 
	C536.150146,338.247467 532.480286,347.598816 530.716492,357.380432 
	C529.213013,365.718506 527.198547,373.912659 524.436829,381.925659 
	C523.462585,384.752533 522.074768,386.964874 517.818420,386.882233 
	C541.005676,305.276031 531.599792,229.197983 480.120544,158.366653 
	C478.418121,160.693802 477.501984,162.322495 476.238983,163.611221 
	C468.206909,171.807053 460.867249,180.871033 452.225922,188.229721 
	C437.610657,200.675720 424.972595,215.035675 410.905579,227.953308 
	C399.753357,238.194260 388.766296,248.555969 378.802063,259.986389 
	C376.634857,262.472473 376.237335,264.404694 377.492920,267.515106 
	C381.939392,278.529938 384.288208,290.139343 384.137604,301.957184 
	C383.979492,314.364594 382.293671,326.722778 379.834167,338.909180 
	C379.049377,342.797577 379.287842,346.149384 381.929077,349.159363 
	C386.408447,354.264130 390.665649,359.594177 395.458954,364.386749 
	C405.453400,374.379608 415.706024,384.115540 425.911041,393.896027 
	C434.553314,402.178802 443.168640,410.541992 451.506897,419.072662 
	C461.273926,429.065094 471.986694,437.930939 482.095245,447.487671 
	C484.701477,449.951660 486.915161,451.973297 486.170532,456.580139 
	C487.789734,453.518829 489.020477,451.191986 490.723419,448.303406 
M240.263092,353.179108 
	C247.643280,361.153168 255.603790,368.104675 266.010406,372.244568 
	C284.138824,379.456329 302.292267,382.212921 321.300171,376.032990 
	C329.586823,373.338806 337.266296,369.414612 345.023926,365.618042 
	C354.162109,361.145844 362.525879,361.793488 370.484039,368.413330 
	C376.726410,373.605957 383.063904,378.670837 389.252594,383.941742 
	C404.271942,396.733704 419.329834,409.473053 433.827820,422.854431 
	C445.048645,433.211060 457.601532,442.098419 467.752899,453.638519 
	C468.494751,454.481812 469.685974,454.914062 470.601868,455.623230 
	C472.684875,457.236023 474.573486,457.055939 476.326935,455.129822 
	C478.434845,452.814270 476.362946,451.425476 475.009491,450.168213 
	C467.836334,443.505066 460.776703,436.695923 453.287109,430.402283 
	C437.657593,417.268463 422.605377,403.489227 407.685333,389.584290 
	C395.905304,378.605774 384.847443,366.853027 373.445587,355.467438 
	C371.147552,353.172668 369.052612,350.504242 368.912292,347.356354 
	C368.633301,341.097931 367.972595,334.810730 370.232086,328.598389 
	C374.373322,317.212311 375.649811,305.573822 373.936707,293.370056 
	C372.807281,285.324524 368.806366,278.287292 367.502899,270.519897 
	C366.172089,262.589569 361.162750,257.315521 356.571381,251.463547 
	C351.886780,245.492783 344.567108,243.954361 338.669800,240.048996 
	C321.512909,228.687195 302.546906,225.635529 282.473724,230.094101 
	C273.827209,232.014618 265.728455,235.332748 258.352905,240.408447 
	C252.265701,244.597610 247.682724,244.583176 243.454239,240.356476 
	C235.458572,232.364105 227.095337,224.802261 218.510605,217.446457 
	C204.661026,205.579468 191.223129,193.227142 177.239349,181.524323 
	C172.412201,177.484573 168.451187,172.461243 162.846085,169.273911 
	C154.865738,164.735931 148.481003,158.081223 141.309219,152.466629 
	C137.028687,149.115524 133.655609,144.527176 128.234314,142.664917 
	C125.785759,141.823837 124.029678,142.589920 122.627411,144.596420 
	C121.142540,146.721115 122.031029,148.318436 123.751236,149.741592 
	C125.666153,151.325851 127.698280,152.790802 129.471039,154.521118 
	C148.252930,172.853363 168.919846,189.113998 187.615891,207.549286 
	C193.625824,213.475372 200.163315,218.879761 206.604675,224.351883 
	C216.252853,232.548294 225.002304,241.605011 233.078918,251.329956 
	C237.004410,256.056549 236.479492,260.646606 233.556534,265.918518 
	C223.592850,283.889160 220.247665,302.782104 225.802826,323.063690 
	C228.755646,333.844208 234.333817,343.160522 240.263092,353.179108 
M187.696686,401.248718 
	C173.955338,411.969116 160.551422,423.073761 148.379776,435.593628 
	C146.068527,437.971069 143.473587,440.049377 140.991318,442.236420 
	C136.397827,446.283661 131.775970,450.404022 128.196289,455.471405 
	C127.019325,457.137512 124.627563,458.682861 126.718781,461.016266 
	C128.934143,463.488251 131.171524,462.016724 133.338135,460.559692 
	C141.457047,455.099670 148.805496,448.632538 156.570862,442.749359 
	C175.652771,428.292511 191.385849,410.104828 210.392670,395.622955 
	C218.440918,389.490784 224.923889,381.557098 233.264465,375.708893 
	C237.781799,372.541473 242.299942,369.399902 247.832001,366.859741 
	C243.001175,362.943115 238.682281,359.660431 235.893921,355.369659 
	C220.583130,371.378845 204.705246,386.386383 187.696686,401.248718 
M382.664581,227.235367 
	C374.851196,233.566483 367.037811,239.897598 358.894348,246.496185 
	C361.560699,249.422028 363.866425,251.952194 366.455261,254.792984 
	C371.745575,250.468842 377.112976,246.586670 381.888641,242.077759 
	C393.371338,231.236374 404.487457,220.007446 415.927765,209.120148 
	C422.648529,202.724274 429.824371,196.808228 436.588776,190.456207 
	C450.387024,177.499054 464.050812,164.398636 477.753296,151.339752 
	C479.130554,150.027145 480.369720,148.596252 478.600128,146.660446 
	C476.615509,144.489349 475.175995,145.878235 473.572418,147.290161 
	C463.123627,156.490540 452.387543,165.380219 442.210358,174.870148 
	C423.040283,192.745651 403.048309,209.668274 382.664581,227.235367 
M480.645325,134.589020 
	C476.726959,130.799423 472.808594,127.009850 468.890259,123.220268 
	C468.602631,123.551361 468.315002,123.882454 468.027344,124.213547 
	C472.943634,128.666016 477.859924,133.118469 482.776184,137.570938 
	C482.891205,137.448944 483.006195,137.326950 483.121216,137.204956 
	C482.439789,136.484604 481.758392,135.764252 480.645325,134.589020 
z"/>
<path fill="#FFFFFF" opacity="1.000000" stroke="none" 
	d="
M131.017731,135.011703 
	C128.822174,130.963364 129.951904,127.862068 133.495453,125.106216 
	C149.187881,112.902130 164.693787,100.370422 182.106964,90.685234 
	C198.421722,81.611000 215.947052,75.574944 234.472717,72.662506 
	C237.080902,72.252480 239.622406,71.419060 242.230316,71.005959 
	C243.904510,70.740753 246.273071,69.813889 246.890381,72.240311 
	C247.495255,74.617905 244.827194,74.646729 243.506927,74.983551 
	C227.234375,79.134888 212.334198,86.709572 198.116287,95.112885 
	C179.624023,106.042503 160.609772,116.512741 145.528580,132.407852 
	C139.909302,138.330368 139.018234,138.339172 131.351379,135.072556 
	C130.980835,134.973770 131.004242,135.000153 131.017731,135.011703 
z"/>
<path fill="#FFFFFF" opacity="1.000000" stroke="none" 
	d="
M405.987396,157.350098 
	C401.670929,154.480469 397.499969,152.047897 394.335449,148.281738 
	C389.792175,142.874725 391.323029,134.052658 397.665070,130.958923 
	C399.816010,129.909653 400.892365,128.603699 400.653839,126.398476 
	C399.122192,112.238060 414.953369,108.347603 424.687347,114.685905 
	C426.632996,115.952827 428.625031,117.148354 430.577515,118.404991 
	C437.389221,122.789062 437.766602,123.136612 433.265228,129.933319 
	C427.497101,138.642715 421.631683,147.281250 416.227295,156.225769 
	C413.500000,160.739624 409.952789,159.544876 405.987396,157.350098 
M403.506500,134.218643 
	C397.192017,136.763260 395.752441,141.575897 399.875916,146.547821 
	C402.661926,149.907059 406.122192,152.406265 409.923950,154.245880 
	C411.757904,153.771042 412.292633,152.339554 413.047455,151.049561 
	C416.477661,145.187302 419.770844,139.232895 423.464935,133.539749 
	C429.774689,123.815468 429.417938,122.284691 418.696350,117.299370 
	C418.395050,117.159256 418.104431,116.991562 417.794250,116.875740 
	C411.738831,114.614662 406.506653,119.040482 407.366791,125.692200 
	C412.294678,119.312859 418.097229,117.872894 422.747620,121.875328 
	C425.138123,123.932739 424.649078,128.469025 421.630951,132.233368 
	C418.003204,136.758026 414.868378,136.296387 407.857025,130.156921 
	C406.849396,131.639664 406.027924,133.311539 403.506500,134.218643 
z"/>
<path fill="#FFFFFF" opacity="1.000000" stroke="none" 
	d="
M259.438232,94.955902 
	C256.479950,95.377914 253.876602,95.898636 251.248154,96.202057 
	C247.928711,96.585228 245.523788,95.739525 244.602585,91.908615 
	C243.202423,86.085831 243.280243,85.679276 249.371796,84.517853 
	C255.870056,83.278877 262.379944,82.101128 268.881958,80.881500 
	C272.314362,80.237656 274.518829,81.743263 275.103180,85.017303 
	C277.224365,96.901703 279.192627,108.813744 281.151855,120.726326 
	C281.448334,122.529060 280.912292,123.932938 278.712677,124.322647 
	C271.711578,125.563057 264.757721,127.097084 257.730865,128.153717 
	C254.498108,128.639832 252.348221,126.703461 251.822464,123.409828 
	C251.303497,120.158775 251.869339,117.736084 255.724594,116.558617 
	C258.668060,115.659630 262.563538,116.720604 264.531464,113.245911 
	C263.778961,110.711693 261.907318,111.327324 260.365570,111.508118 
	C254.469070,112.199554 253.355484,111.355278 252.099030,105.976189 
	C250.823837,100.516914 255.401611,101.614128 257.906982,100.734070 
	C261.389923,99.510605 263.043396,98.158188 259.438232,94.955902 
M273.150848,106.988495 
	C272.304535,101.264313 271.531219,95.527939 270.578339,89.821548 
	C270.160706,87.320328 269.560577,84.735817 265.906250,85.556221 
	C260.953918,86.668015 255.983337,87.698250 251.030014,88.761452 
	C251.104370,91.172859 252.215424,91.281616 254.027145,91.072075 
	C256.984100,90.730087 259.987946,90.753288 262.973297,90.704964 
	C269.012299,90.607208 266.872955,95.881981 267.991302,98.813248 
	C269.014221,101.494400 267.189178,102.834190 264.416595,103.546921 
	C262.565094,104.022858 259.985870,103.572685 258.702759,106.158783 
	C260.331116,108.231575 262.177063,107.535553 264.099792,107.022125 
	C267.583374,106.091896 270.527893,106.596336 271.080536,110.847969 
	C271.532196,114.322769 272.126373,117.777527 266.840302,118.677788 
	C263.820190,119.192146 260.359833,119.424713 257.623932,121.821007 
	C259.139008,124.383278 261.075073,123.590034 262.946533,123.062317 
	C267.008362,121.916977 272.809204,123.555969 274.925842,120.207092 
	C276.977020,116.961853 274.101288,112.006638 273.150848,106.988495 
z"/>
<path fill="#FFFFFF" opacity="1.000000" stroke="none" 
	d="
M354.712036,111.413040 
	C353.496674,117.338409 352.326599,122.843498 351.441162,128.393982 
	C350.977417,131.300903 349.475433,132.360992 346.705811,132.284531 
	C340.809174,132.121750 335.153381,130.760071 329.907471,128.214828 
	C324.782593,125.728294 323.107269,121.323380 324.210541,115.732025 
	C325.217529,110.628479 326.661865,105.741539 330.339081,101.869812 
	C332.247772,99.860161 331.659943,97.535217 331.480713,95.262497 
	C331.338257,93.455650 330.614777,91.633980 330.780151,89.878349 
	C331.003265,87.510910 327.390411,84.183357 332.153137,82.842972 
	C337.357788,81.378212 342.069550,83.627716 343.740997,88.102814 
	C343.838989,88.365204 344.194519,88.531403 344.434387,88.737640 
	C346.833771,85.255554 354.417511,84.643364 357.291656,87.673172 
	C358.345978,88.784622 358.256897,90.072121 358.039581,91.414978 
	C356.982422,97.946785 355.929718,104.479317 354.712036,111.413040 
M351.676636,99.409370 
	C351.274231,96.574234 354.183044,93.614983 351.042603,90.005653 
	C350.324432,92.524330 349.792358,94.379471 349.266693,96.236435 
	C348.320068,99.580383 348.603516,104.040817 343.043121,103.261513 
	C337.592285,102.497566 339.035278,98.109352 338.718628,94.743088 
	C338.509247,92.517242 338.840912,90.201164 336.645721,88.023430 
	C336.284058,90.886894 336.363190,93.227921 336.836700,95.685547 
	C337.577454,99.530548 337.927673,102.791748 334.218445,106.332420 
	C326.675171,113.532913 329.611786,123.795502 339.365936,126.946602 
	C344.906799,128.736588 346.568695,127.785362 347.602905,122.184464 
	C348.951263,114.882545 350.278290,107.576691 351.676636,99.409370 
z"/>
<path fill="#FFFFFF" opacity="1.000000" stroke="none" 
	d="
M295.449097,81.956673 
	C301.838593,79.812614 308.021423,80.950706 314.125092,80.767883 
	C316.494202,80.696930 317.158722,82.147804 317.284058,84.291611 
	C317.892120,94.694107 318.660339,105.087471 319.233459,115.491699 
	C319.625153,122.602180 316.782776,125.207130 309.179504,124.043457 
	C305.698486,123.510689 302.263275,123.492828 298.803894,123.256889 
	C290.425812,122.685471 285.521606,113.110428 290.195007,106.074677 
	C291.594421,103.967880 291.347107,102.824944 290.067780,100.884506 
	C285.065063,93.296349 287.324585,85.151215 295.449097,81.956673 
M300.408264,115.467812 
	C296.413208,114.091179 298.356934,110.072899 297.209717,107.157837 
	C294.501495,109.662643 293.779022,111.981354 295.307495,115.039253 
	C296.796265,118.017784 298.815063,119.735001 302.264099,119.717140 
	C304.242126,119.706902 306.262634,119.843849 308.192413,120.252686 
	C312.185150,121.098587 313.731262,119.518227 313.714569,115.573174 
	C313.682190,107.928047 312.308594,100.372520 312.595520,92.689087 
	C312.915619,84.117226 311.637848,83.157021 303.132721,84.426010 
	C301.193970,84.715286 299.228363,85.372490 297.478210,86.260628 
	C294.080414,87.984848 292.983002,91.049149 293.795807,94.617554 
	C294.805267,99.049438 300.619843,103.507431 305.102448,103.712486 
	C306.831299,103.791573 309.210968,103.066956 309.877136,105.329826 
	C310.771545,108.367920 311.047485,111.791779 309.858490,114.662117 
	C308.684601,117.495987 305.462921,115.972176 303.121857,116.231483 
	C302.491425,116.301323 301.821686,116.016701 300.408264,115.467812 
z"/>
<path fill="#FFFFFF" opacity="1.000000" stroke="none" 
	d="
M178.039948,117.993362 
	C181.157242,116.344963 183.993271,114.954292 186.706833,113.355698 
	C191.378296,110.603645 194.418854,111.014030 197.174118,115.652916 
	C202.840973,125.193848 208.210388,134.911118 213.736633,144.536072 
	C215.568863,147.727219 215.732086,150.269989 211.999985,152.395172 
	C205.470230,156.113449 203.191086,156.344070 200.369705,152.126068 
	C196.502808,146.344971 192.635071,140.509064 189.457947,134.341110 
	C187.286499,130.125534 185.534515,130.220306 181.973984,132.649048 
	C175.830627,136.839615 172.556900,135.872772 169.016922,129.679855 
	C166.931381,126.031364 167.106384,123.099174 171.451447,121.258385 
	C173.589630,120.352547 175.622864,119.198990 178.039948,117.993362 
M207.611526,149.083954 
	C210.835327,147.486206 208.368164,145.595627 207.589645,144.235626 
	C204.220947,138.350906 200.602020,132.609131 197.059692,126.824173 
	C190.970169,116.879395 190.898880,116.755890 180.879166,122.053665 
	C178.653030,123.230698 173.653549,123.317245 175.368530,127.331543 
	C177.358124,131.988647 180.240891,127.255333 182.677750,126.662697 
	C186.205750,125.804718 189.788071,124.005287 192.412338,128.157166 
	C195.418335,132.912949 198.033157,137.936371 201.299026,142.499161 
	C202.997437,144.872025 203.120667,148.761642 207.611526,149.083954 
z"/>
<path fill="#FFFFFF" opacity="1.000000" stroke="none" 
	d="
M238.260727,136.422623 
	C234.621033,138.137131 232.830368,136.386276 231.584335,133.682297 
	C228.598816,127.203415 225.610001,120.723999 222.774017,114.179161 
	C221.467896,111.164909 219.889511,109.942558 216.753006,111.943733 
	C215.526169,112.726479 213.966171,112.980949 212.567261,113.501167 
	C207.052673,115.551895 204.709839,114.388489 202.307877,108.025551 
	C200.500397,103.237488 204.076660,101.810562 207.473312,100.682808 
	C213.473709,98.690552 218.798920,95.158363 224.936371,93.422493 
	C228.210388,92.496483 230.006790,93.426193 231.432495,96.142639 
	C236.999313,106.749428 241.260925,117.920219 245.405884,129.119293 
	C247.725143,135.385635 241.907501,134.854828 238.260727,136.422623 
M209.396622,105.366608 
	C208.501877,107.888710 209.731705,108.736893 211.996902,108.386703 
	C213.451523,108.161827 214.847458,107.539627 216.260941,107.069244 
	C224.322983,104.386246 225.398331,105.040207 228.508850,112.763847 
	C230.923187,118.758804 233.814102,124.563828 236.568237,130.417969 
	C237.019379,131.376892 237.505783,132.709717 239.150391,131.921967 
	C240.364548,131.340393 240.351166,130.502609 239.858795,129.465210 
	C235.038620,119.309692 231.594666,108.532005 226.168427,98.527336 
	C220.018204,99.282120 215.463791,103.391357 209.396622,105.366608 
z"/>
<path fill="#FFFFFF" opacity="1.000000" stroke="none" 
	d="
M391.019928,99.761940 
	C393.624420,100.063782 395.534851,101.139938 397.214264,102.462524 
	C399.488678,104.253654 400.021027,106.449150 397.971313,108.908867 
	C390.247040,118.178154 382.628998,127.537491 374.797943,136.715332 
	C372.523682,139.380753 369.352692,138.514038 366.488007,137.522552 
	C363.782288,136.586090 361.422485,135.575867 361.587708,131.760818 
	C361.792114,127.040863 363.092407,122.675423 364.349670,118.207718 
	C366.318634,111.211082 367.895966,104.104851 369.680878,97.055603 
	C371.070892,91.565964 373.000214,90.575096 378.293152,92.797211 
	C382.086914,94.389938 387.681122,94.790039 384.236816,101.738770 
	C386.967102,101.708183 388.348358,99.186722 391.019928,99.761940 
M371.160706,115.399200 
	C369.923370,120.034462 368.609192,124.651413 367.496826,129.316483 
	C367.174957,130.666489 366.647064,132.466583 368.433105,133.301926 
	C370.095886,134.079605 370.705688,132.441116 371.531494,131.491089 
	C376.092133,126.244270 380.914490,121.192223 385.081055,115.648018 
	C387.527130,112.393173 390.879242,109.610077 392.384796,105.118286 
	C383.697449,109.218315 378.225525,107.594231 377.234528,96.114128 
	C373.888794,103.126450 373.103638,109.021080 371.160706,115.399200 
z"/>
<path fill="#FFFFFF" opacity="1.000000" stroke="none" 
	d="
M352.924438,475.230164 
	C354.756958,481.402191 354.345947,482.102692 348.610504,483.420990 
	C346.835358,483.829041 345.038879,484.203644 343.326660,484.805511 
	C342.180267,485.208557 340.275604,485.305206 340.636414,487.133362 
	C341.063202,489.295898 342.880524,488.644562 344.280731,488.265778 
	C348.096710,487.233643 350.938873,487.504242 352.423035,492.068695 
	C353.840027,496.426483 352.837402,498.625641 348.272949,499.302551 
	C345.028687,499.783722 342.098785,500.687805 345.094269,505.097382 
	C348.118256,504.640320 351.189911,503.895386 354.286041,503.773682 
	C358.950287,503.590393 362.693054,509.161224 361.147003,513.493042 
	C360.661407,514.853699 359.680664,515.072205 358.483032,515.282959 
	C351.325104,516.542542 344.173553,517.839233 337.024902,519.150757 
	C333.301941,519.833801 330.469727,519.229370 329.731323,514.801086 
	C327.775848,503.072815 325.726868,491.360229 323.741760,479.636841 
	C323.292511,476.983795 324.718384,475.491058 327.141327,475.051239 
	C333.648621,473.869904 340.169678,472.752899 346.707642,471.757202 
	C349.332550,471.357422 351.728546,471.897339 352.924438,475.230164 
M329.445221,481.521790 
	C331.068542,490.809479 332.656128,500.103638 334.341644,509.380035 
	C334.737885,511.560791 334.722992,514.878967 337.804321,514.499023 
	C343.372345,513.812439 348.834290,512.265625 354.434296,511.057709 
	C353.504395,508.172974 351.961609,508.140015 350.504028,508.670502 
	C347.895630,509.619812 345.228027,509.155670 342.590424,509.355347 
	C338.865875,509.637360 337.846741,507.789398 337.580719,504.285217 
	C337.197632,499.239258 338.211945,495.831512 344.023895,495.622223 
	C345.029053,495.585999 346.008667,495.208588 346.123962,493.594482 
	C344.905426,491.939728 343.128021,492.156769 341.361359,492.729736 
	C337.685669,493.921875 334.796509,493.704132 333.859558,489.143677 
	C332.816650,484.067780 333.899536,482.373505 339.022888,481.015381 
	C341.783112,480.283661 344.884338,480.363861 347.076202,478.227814 
	C346.639282,476.403900 345.399384,476.251160 344.261536,476.411621 
	C339.836853,477.035461 335.425232,477.757538 331.019470,478.506165 
	C329.868378,478.701752 329.468933,479.638123 329.445221,481.521790 
z"/>
<path fill="#FFFFFF" opacity="1.000000" stroke="none" 
	d="
M279.586914,475.787262 
	C283.002258,483.746307 280.200073,490.546326 275.956299,496.548859 
	C273.912018,499.440369 272.764954,501.700378 273.846283,505.032623 
	C274.197662,506.115509 274.475250,507.395569 274.237518,508.463135 
	C273.588287,511.378479 278.211884,515.674805 272.551208,517.155945 
	C265.867126,518.904968 262.900513,516.872559 260.567413,509.530334 
	C258.999512,516.042847 254.488495,514.602478 250.504120,513.867065 
	C247.711960,513.351746 246.269043,511.295044 246.799500,508.318085 
	C248.947388,496.264130 251.225357,484.232422 253.253326,472.158569 
	C253.853714,468.584198 255.661743,467.308350 259.045868,467.696350 
	C266.479584,468.548676 274.003174,469.160400 279.586914,475.787262 
M258.616577,472.629059 
	C256.237488,484.915070 253.217346,497.109467 253.150757,509.791473 
	C254.875275,506.703949 255.979691,503.474518 256.671631,500.158966 
	C257.174652,497.748718 258.461761,496.893219 260.743835,496.664764 
	C266.199402,496.118561 265.802460,500.241333 266.240417,503.534882 
	C266.606628,506.289032 265.682220,509.330933 268.350891,511.876770 
	C269.002869,508.821533 268.560455,506.296906 268.062469,503.647949 
	C267.510223,500.710571 266.490479,497.491516 269.481598,494.870667 
	C273.977722,490.931183 275.295013,485.532410 274.314667,480.021210 
	C273.385529,474.797913 268.190491,474.001129 264.007080,472.594391 
	C262.491119,472.084564 260.739655,472.275177 258.616577,472.629059 
z"/>
<path fill="#FFFFFF" opacity="1.000000" stroke="none" 
	d="
M306.581909,476.726624 
	C315.320587,479.342438 318.915314,486.362244 315.325104,494.000580 
	C314.108826,496.588379 315.100494,498.070923 315.888306,500.182281 
	C319.002228,508.528168 317.971344,515.063416 310.746094,517.834473 
	C308.309814,518.768799 305.696014,519.456360 302.963806,519.348267 
	C300.303467,519.243042 297.635468,519.332764 294.970825,519.335022 
	C287.678925,519.341187 287.127045,519.195801 286.838104,512.033875 
	C286.423126,501.747894 286.931061,491.427155 285.710327,481.165375 
	C285.340424,478.055878 286.859467,477.261627 289.824158,476.408966 
	C295.446655,474.791901 300.720306,477.222137 306.581909,476.726624 
M306.020538,499.985565 
	C306.020538,499.985565 305.869263,499.856201 305.775757,499.109192 
	C305.200409,494.784821 301.782806,496.395905 299.505249,496.403717 
	C295.873688,496.416199 294.235687,495.127472 294.648376,491.425354 
	C294.794830,490.111969 294.763580,488.764893 294.676025,487.442261 
	C294.487244,484.591064 295.929382,483.626526 298.583313,483.685242 
	C301.076294,483.740417 303.503235,483.629852 305.747406,485.158813 
	C308.160461,486.802826 306.426636,489.876862 308.083374,491.898804 
	C311.998962,486.065613 309.461304,480.766663 302.832397,480.320038 
	C301.014221,480.197540 299.086212,480.484955 297.392090,479.974823 
	C292.744537,478.575439 291.117310,480.638458 291.333374,484.889008 
	C291.711243,492.323181 292.563538,499.721344 292.371338,507.198212 
	C292.151642,515.746521 293.826660,517.040161 302.278809,515.505005 
	C303.892914,515.211853 305.454834,514.576721 307.006592,514.006226 
	C310.308563,512.792419 311.526276,509.852661 311.425781,506.883209 
	C311.320251,503.764587 310.257782,500.546875 306.020538,499.985565 
z"/>
<path fill="#FFFFFF" opacity="1.000000" stroke="none" 
	d="
M405.474762,448.560883 
	C409.382355,454.769440 413.102600,460.657532 416.669373,466.637207 
	C417.886536,468.677765 419.253906,468.946411 421.203552,467.893097 
	C422.225647,467.340881 423.328918,466.940857 424.383545,466.446533 
	C430.953430,463.367401 436.139099,466.236084 437.201660,473.503204 
	C437.506165,475.586060 436.819183,476.941681 434.889526,477.924286 
	C428.671112,481.090790 422.571075,484.493927 416.308929,487.568695 
	C413.094971,489.146759 410.153473,488.497040 408.211639,485.157776 
	C402.371857,475.115509 396.496796,465.093445 390.726959,455.011139 
	C389.554993,452.963226 388.589142,450.390381 391.103210,448.772034 
	C394.439819,446.624115 397.588348,442.958527 402.288055,445.592834 
	C403.415100,446.224579 404.255219,447.368134 405.474762,448.560883 
M399.812317,451.104248 
	C394.886047,450.111267 395.549530,452.679596 397.186005,455.463318 
	C402.123169,463.861664 407.202606,472.176300 412.176208,480.553467 
	C413.136902,482.171600 414.336700,483.329254 416.175781,482.351044 
	C420.957397,479.807678 425.639709,477.077637 430.300140,474.456665 
	C429.734436,471.144623 428.371613,469.995544 425.466797,471.611542 
	C424.168091,472.334076 422.822998,473.011749 421.429169,473.517426 
	C417.310364,475.011658 414.031006,474.958313 411.565247,470.218475 
	C408.215576,463.779480 404.087463,457.745483 399.812317,451.104248 
z"/>
<path fill="#FFFFFF" opacity="1.000000" stroke="none" 
	d="
M203.726501,480.056183 
	C200.079361,489.452789 188.000122,491.341003 176.861816,483.668274 
	C167.066895,476.921021 167.166763,476.672943 173.807495,466.498688 
	C178.705231,458.994781 183.915878,451.705353 188.258255,443.832214 
	C190.859985,439.115021 193.353394,438.854828 198.011414,441.960999 
	C201.459534,444.260437 205.012238,446.410309 208.384888,448.814087 
	C215.614716,453.966949 214.839676,465.295685 206.972656,469.435272 
	C205.113983,470.413239 204.260010,471.635376 204.298065,473.736908 
	C204.333954,475.720093 204.065521,477.708771 203.726501,480.056183 
M180.723648,467.153015 
	C175.268372,476.995789 174.089905,474.045166 183.471375,481.000641 
	C184.136703,481.493896 184.836823,481.955902 185.569153,482.340271 
	C188.500183,483.878723 191.744507,484.862366 194.378006,482.394501 
	C196.975571,479.960358 199.450974,477.052429 198.055267,472.844788 
	C196.805222,469.076324 198.310959,466.942169 202.024689,465.749237 
	C207.685730,463.930847 209.302933,458.243439 205.503448,453.660583 
	C202.512589,450.053040 198.612061,447.593811 194.024597,445.232971 
	C189.670990,452.459656 185.420029,459.515930 180.723648,467.153015 
z"/>
<path fill="#FFFFFF" opacity="1.000000" stroke="none" 
	d="
M372.384399,502.470581 
	C368.134918,492.318481 364.055267,482.516479 359.984528,472.710815 
	C358.829620,469.928833 357.216125,467.085236 361.180206,465.069427 
	C367.887848,461.658539 371.169312,461.897522 373.580658,466.584442 
	C377.075836,473.377930 380.211609,480.356018 383.533478,487.239563 
	C383.876465,487.950317 384.441742,488.553802 384.940521,489.258850 
	C387.747070,488.141266 390.291443,486.875366 392.979187,486.118500 
	C396.778351,485.048737 399.981476,485.325745 401.861023,489.849213 
	C404.142395,495.339630 404.103149,496.768585 398.523163,499.033722 
	C392.386017,501.525024 386.572174,504.736908 380.134094,506.613892 
	C375.894684,507.849884 373.810364,506.633026 372.384399,502.470581 
M375.133667,493.610413 
	C376.283051,496.338593 377.432404,499.066742 378.647736,501.951508 
	C384.975525,499.678894 390.745270,497.050568 396.511749,494.047852 
	C393.998016,489.411682 391.168610,492.411407 388.938416,493.053802 
	C380.619629,495.449890 379.802094,495.092651 376.553650,487.322815 
	C374.119690,481.501099 371.366791,475.810791 368.668243,470.103394 
	C368.164886,469.038757 367.846283,467.276489 365.900909,468.089722 
	C363.845795,468.948822 365.090424,470.354431 365.545074,471.425262 
	C368.594421,478.607208 371.727997,485.753357 375.133667,493.610413 
z"/>
<path fill="#FFFFFF" opacity="1.000000" stroke="none" 
	d="
M229.680878,463.300659 
	C234.448135,460.122955 238.587082,462.094421 242.593338,464.108429 
	C244.528915,465.081512 244.354538,467.044159 243.873978,468.957123 
	C240.935928,480.652191 238.077255,492.367279 235.115768,504.056335 
	C234.150101,507.867798 231.673126,508.917480 227.908493,507.852692 
	C220.657806,505.801941 219.425659,504.440582 219.998779,498.003540 
	C217.934692,498.628479 216.549622,500.762024 214.209702,500.268188 
	C210.882858,499.566071 207.528656,498.601593 206.084915,495.287781 
	C204.734207,492.187408 207.241821,489.845398 209.100952,487.922455 
	C216.472275,480.298035 222.894424,471.907806 229.680878,463.300659 
M226.393997,477.195648 
	C221.166306,482.116760 216.717575,487.635956 213.194611,494.093048 
	C216.747101,491.643188 220.048721,493.441589 223.414047,493.927124 
	C228.623444,494.678772 225.808594,499.760651 227.424805,502.138733 
	C229.313904,501.863617 229.518585,500.855347 229.788315,499.889465 
	C231.077637,495.272644 232.438263,490.674500 233.646942,486.036713 
	C235.024048,480.752716 236.321289,475.446136 237.532150,470.121796 
	C237.851379,468.718109 238.188293,466.976227 236.324066,466.246124 
	C234.639130,465.586212 234.051041,467.060669 233.297150,468.130951 
	C231.204346,471.101959 229.091309,474.058716 227.007904,476.998901 
	C227.007904,476.998901 227.034363,476.981567 226.393997,477.195648 
z"/>
<path fill="#FFFFFF" opacity="1.000000" stroke="none" 
	d="
M167.268921,281.592102 
	C159.606079,284.587372 152.360352,287.189697 144.443634,283.203003 
	C137.892303,279.903839 136.799805,273.623627 134.877228,267.682312 
	C134.783493,267.392670 134.798248,266.929901 134.970505,266.712799 
	C137.756760,263.200928 142.008377,263.525055 145.785995,262.822754 
	C148.298264,262.355713 150.879684,262.649811 151.357056,266.161835 
	C151.569138,267.722015 152.391434,269.183197 154.178818,269.085785 
	C155.617676,269.007385 156.270386,267.647003 156.808853,266.377991 
	C158.453598,262.501862 157.975418,258.743652 155.390366,255.620285 
	C153.231628,253.011993 150.606018,253.446228 147.357986,254.745285 
	C143.560837,256.263947 139.145584,255.319626 134.997162,255.139511 
	C133.647888,255.080917 133.052383,254.198593 132.772217,252.885406 
	C130.698181,243.163574 131.955643,233.340530 131.885437,223.563202 
	C131.868805,221.246613 133.815720,220.706802 135.827637,220.728241 
	C145.975998,220.836456 155.915482,218.811844 165.959167,217.860367 
	C168.587326,217.611389 172.227081,216.394852 173.664780,219.543671 
	C175.173767,222.848618 174.757568,226.760651 173.828949,230.306061 
	C173.261444,232.472748 170.995483,232.248154 169.166473,232.290695 
	C163.857391,232.414215 158.630157,233.225479 153.443604,234.274216 
	C150.576843,234.853897 150.599564,234.966293 150.884171,238.777023 
	C156.127487,236.833466 161.428986,235.584488 166.839279,237.811432 
	C175.101440,241.212219 176.343414,248.807678 177.183624,256.235260 
	C177.899445,262.563171 176.098434,268.720734 173.983948,274.693359 
	C172.859207,277.870331 170.391113,279.789307 167.268921,281.592102 
M156.008881,229.111130 
	C158.662308,228.962051 161.321259,228.876251 163.967560,228.645523 
	C166.447800,228.429245 168.789520,227.729599 168.551788,224.591629 
	C168.316772,221.489471 165.690826,222.282410 163.898911,222.355255 
	C156.614944,222.651367 149.458115,224.615601 142.130035,224.252823 
	C138.418167,224.069046 136.994675,225.463013 137.261551,229.165787 
	C137.653763,234.607544 137.963623,240.070053 137.918579,245.520508 
	C137.902618,247.450745 136.560852,249.624084 138.552597,251.016373 
	C140.489105,252.370026 142.539185,251.620255 144.587769,250.422760 
	C149.253601,247.695374 155.340027,248.188019 159.098633,251.183609 
	C163.972015,255.067703 164.979950,260.305908 163.799652,265.933014 
	C162.563644,271.825775 160.348038,272.886627 154.372101,273.419403 
	C149.362778,273.866058 146.716156,271.279968 144.661758,267.465820 
	C141.531769,268.581604 142.307632,270.459167 143.106247,272.400116 
	C145.281479,277.686829 149.259247,281.105713 153.804062,280.714996 
	C160.098541,280.173859 165.444244,277.394745 168.207642,271.486542 
	C170.785309,265.975464 171.380554,259.894867 170.532028,253.897842 
	C169.843246,249.029907 167.879211,244.388916 163.379639,241.838242 
	C159.469559,239.621704 156.698730,242.666779 153.620926,244.745010 
	C150.600525,246.784500 145.335480,245.191452 144.782166,242.665283 
	C142.651794,232.938736 144.337662,230.599670 154.189987,229.602478 
	C154.519958,229.569092 154.844238,229.479401 156.008881,229.111130 
z"/>
<path fill="#FFFFFF" opacity="1.000000" stroke="none" 
	d="
M176.256454,315.651672 
	C175.402176,319.820709 174.507828,323.527740 170.886322,325.869385 
	C178.436554,330.911957 179.089127,338.372864 178.004684,345.876465 
	C176.976654,352.989655 171.717484,356.913116 165.036957,358.806610 
	C156.733521,361.160065 148.211533,360.218414 139.765518,360.140045 
	C137.378830,360.117889 136.177307,358.675598 135.643173,356.059387 
	C134.699493,351.437347 134.932800,346.817474 134.680679,342.188873 
	C133.933243,328.467316 133.061707,314.751678 132.095062,301.043823 
	C131.948654,298.967560 131.914200,297.186340 134.286804,296.851044 
	C145.328690,295.290466 156.401230,294.240967 167.200851,298.166962 
	C175.231628,301.086426 176.428513,307.839355 176.256454,315.651672 
M163.006989,301.390411 
	C156.165497,298.406281 148.982880,299.109985 141.879669,299.672485 
	C139.156631,299.888153 136.975494,301.044891 137.429749,304.839996 
	C138.885727,317.003937 140.145920,329.192291 140.339417,341.468597 
	C140.401855,345.430298 141.006683,349.382782 141.343002,353.341217 
	C141.459427,354.711609 142.185440,355.606354 143.524399,355.592041 
	C149.978531,355.523163 156.601089,356.907501 162.818314,354.493195 
	C167.890045,352.523651 171.870682,348.588745 172.152405,343.118835 
	C172.377808,338.743073 172.008621,333.629761 167.362793,330.737122 
	C161.408508,327.029724 161.387955,327.062683 166.191757,321.852997 
	C172.019791,315.532532 170.883316,306.411987 163.006989,301.390411 
z"/>
<path fill="#FFFFFF" opacity="1.000000" stroke="none" 
	d="
M80.544159,308.426086 
	C79.410515,305.759308 79.780457,303.402893 79.724869,301.083588 
	C79.659477,298.354736 81.414062,296.564148 83.632690,296.949585 
	C88.389458,297.775940 93.787613,292.860748 97.646126,297.734619 
	C99.337418,299.870972 98.989891,303.765411 99.221275,306.887238 
	C99.993202,317.301849 100.704041,327.723114 101.246216,338.151794 
	C101.556755,344.124878 101.941925,344.684570 107.924095,344.703857 
	C110.422935,344.711914 112.932533,344.544403 115.417763,344.724884 
	C117.948868,344.908722 121.696365,343.388947 122.709023,346.122894 
	C124.223717,350.212280 125.194794,354.827698 123.843719,359.307404 
	C123.182510,361.499756 120.981133,361.252167 119.160744,361.261139 
	C112.663719,361.293182 106.163994,361.186646 99.670410,361.343872 
	C96.037270,361.431854 92.419212,362.084991 88.785072,362.206879 
	C85.739174,362.309082 83.600906,361.028137 83.739845,357.510895 
	C84.384392,341.193878 80.078094,325.193970 80.544159,308.426086 
M86.301918,315.540710 
	C85.683350,328.542145 90.417946,341.112976 89.392143,354.158813 
	C89.163589,357.065430 91.194603,357.722198 93.664703,357.710083 
	C100.158188,357.678192 106.653259,357.619751 113.144974,357.730835 
	C116.120056,357.781738 117.826576,357.114716 117.776535,353.604523 
	C117.727516,350.166870 116.785133,348.182709 112.983727,348.286865 
	C109.157272,348.391754 105.314720,348.113037 101.498581,348.335052 
	C97.417976,348.572388 95.640968,346.811798 95.716896,342.838776 
	C95.961403,330.043152 93.069656,317.407043 93.718513,304.598633 
	C93.909683,300.825104 92.021881,300.080475 88.813095,300.316772 
	C85.075302,300.591949 84.907677,303.163483 85.581970,305.668640 
	C86.383957,308.648224 86.175629,311.600555 86.301918,315.540710 
z"/>
<path fill="#FFFFFF" opacity="1.000000" stroke="none" 
	d="
M90.073349,274.292023 
	C87.926575,274.277618 86.262596,274.289429 84.600441,274.239685 
	C83.212486,274.198181 81.452980,273.847137 81.356354,272.456665 
	C80.995758,267.267944 78.756218,261.920349 80.886314,256.888519 
	C85.877052,245.099106 93.847328,234.912979 99.482742,223.446686 
	C100.953026,220.455139 103.682526,220.709076 106.363228,220.689926 
	C117.295677,220.611832 117.123268,220.599548 117.346924,231.313889 
	C117.523201,239.758713 116.317680,248.258606 118.216713,256.653564 
	C118.519890,257.993744 118.696312,259.039734 120.264915,259.670349 
	C124.296417,261.291168 127.795555,270.067841 124.833107,271.573578 
	C119.213516,274.429932 120.821671,278.664612 119.606323,282.824463 
	C118.424454,286.869720 112.709526,285.379517 108.976814,286.157593 
	C105.886963,286.801605 105.825294,283.900360 105.173843,281.967529 
	C104.862579,281.044037 104.696060,280.001282 104.762848,279.033173 
	C105.028679,275.179749 102.973000,274.106567 99.538948,274.264038 
	C96.550804,274.401062 93.551376,274.291931 90.073349,274.292023 
M100.761230,269.914612 
	C110.607483,267.292389 110.256493,275.460876 111.735649,281.181061 
	C113.680801,280.555786 113.603088,279.478760 113.659668,278.509399 
	C113.855576,275.152832 112.899147,271.569916 117.703247,270.013306 
	C119.852676,269.316833 119.003593,264.215240 116.474167,263.587311 
	C112.956520,262.714081 112.982773,260.458527 112.594025,257.660828 
	C111.235634,247.884735 111.850082,238.075699 111.652176,228.281082 
	C111.619026,226.640167 111.867638,224.754929 109.521515,224.416916 
	C107.771423,224.164764 106.320694,224.519989 105.292435,226.266571 
	C98.976624,236.994537 92.382965,247.564728 86.297798,258.420624 
	C82.271896,265.602783 85.491188,270.759857 93.455399,270.666229 
	C95.602745,270.640991 97.746956,270.348877 100.761230,269.914612 
z"/>
<path fill="#FFFFFF" opacity="1.000000" stroke="none" 
	d="
M186.417450,340.447327 
	C194.373688,335.876801 204.492218,339.956848 206.949127,348.336151 
	C208.151093,352.435516 205.337357,357.613647 200.770950,358.823608 
	C197.260132,359.753845 193.490341,359.896423 189.983124,358.735291 
	C182.826950,356.366028 181.222641,348.536469 186.417450,340.447327 
M198.248978,345.354126 
	C195.708542,344.039581 193.232208,340.451111 190.468826,344.982025 
	C188.505432,348.201233 188.828293,351.455963 191.402725,354.084076 
	C193.576767,356.303436 196.299896,355.877075 198.627548,354.090637 
	C202.035187,351.475311 200.703857,348.643524 198.248978,345.354126 
z"/>
<path fill="#FFFFFF" opacity="1.000000" stroke="none" 
	d="
M476.359955,305.706879 
	C482.742371,289.761353 497.670227,289.367950 509.665283,296.072083 
	C513.110535,297.997620 516.442383,309.273773 515.057922,312.945557 
	C514.606079,314.143951 513.820068,314.923676 512.565552,315.112366 
	C509.783752,315.530792 507.000031,315.953796 504.204254,316.256165 
	C501.997620,316.494812 500.640198,315.622620 499.571075,313.428497 
	C497.800995,309.795990 495.908813,309.893127 493.280273,313.031006 
	C490.350586,316.528381 491.375458,320.626038 491.358643,324.524261 
	C491.338470,329.202637 492.648346,333.703644 494.069916,338.113434 
	C494.675140,339.990967 495.837280,341.885498 498.395477,341.331451 
	C499.978790,340.988556 501.166290,339.847137 501.257019,338.234985 
	C501.383606,335.985901 499.568176,335.147278 497.785980,334.572632 
	C491.854919,332.660309 495.572235,327.826508 494.749481,324.403625 
	C493.968750,321.155518 496.741882,320.582581 499.011475,320.186951 
	C502.595612,319.562286 506.223145,319.162354 509.844391,318.782410 
	C513.281860,318.421722 514.828430,320.702484 515.090576,323.537781 
	C515.975159,333.105042 516.604370,342.696472 517.272766,352.282715 
	C517.416077,354.338623 517.253479,356.554657 514.694397,357.014374 
	C506.886902,358.416992 498.955536,358.363007 491.121521,357.795532 
	C483.009247,357.207855 479.069000,350.755646 476.817963,344.173615 
	C472.550323,331.695099 472.039307,318.834595 476.359955,305.706879 
M490.260284,352.315033 
	C493.125793,354.936035 495.501312,353.150879 497.749939,351.363403 
	C500.592224,349.104004 503.094116,348.784149 505.252319,352.179871 
	C506.675293,354.418823 508.521454,353.844604 510.686005,352.996155 
	C511.042603,343.860443 509.943268,334.855438 508.684784,325.854553 
	C508.372437,323.620697 506.957764,323.273193 505.131531,323.339081 
	C503.075775,323.413300 500.902863,323.548096 500.466705,326.067383 
	C500.174561,327.754608 499.637848,329.918732 502.153015,330.637054 
	C504.435974,331.289124 505.826996,332.745026 506.656708,334.893890 
	C508.444031,339.522766 507.126526,343.071442 502.949493,344.783966 
	C496.377197,347.478485 490.704285,345.747009 488.696136,340.345184 
	C485.808319,332.576965 485.117523,324.501495 485.788116,316.315399 
	C486.168976,311.666626 489.211029,308.512756 493.309570,307.252899 
	C497.212555,306.053192 501.599243,305.703644 504.334534,310.220398 
	C505.589355,312.292542 507.262604,311.917206 508.861511,310.973999 
	C509.750519,309.635864 508.878601,308.555573 508.754181,307.447113 
	C508.021454,300.917542 505.857086,298.416748 499.627411,296.744843 
	C494.183685,295.283875 489.543793,296.924347 486.102692,301.526642 
	C475.648621,315.508148 477.387512,339.508362 490.260284,352.315033 
z"/>
<path fill="#FFFFFF" opacity="1.000000" stroke="none" 
	d="
M461.404846,345.801544 
	C466.451172,356.963409 465.508209,358.370209 453.902985,358.378204 
	C450.698181,358.380402 448.660522,357.552216 447.290955,354.448578 
	C445.625031,350.673370 443.677521,347.016663 442.339508,342.725952 
	C438.483398,345.161224 439.609558,348.701416 439.301727,351.817719 
	C439.036377,354.503937 440.670044,358.354980 437.548218,359.518677 
	C433.961945,360.855469 429.741943,361.140381 425.875092,360.848785 
	C423.285614,360.653534 423.124542,357.333008 422.833740,355.129333 
	C421.990204,348.737793 421.048462,342.321045 420.844910,335.892029 
	C420.524506,325.772186 419.184875,315.703186 419.575287,305.540375 
	C419.698547,302.331268 420.499207,300.561615 423.826263,300.182617 
	C426.285828,299.902344 428.696625,299.190918 431.156494,298.916809 
	C435.094086,298.477966 435.943054,301.390137 436.168365,304.294586 
	C436.400055,307.281708 436.512115,310.247223 437.686310,313.422089 
	C439.365936,309.472412 440.926971,305.722717 442.552551,302.001221 
	C444.181152,298.272766 455.603668,295.698975 458.397491,298.510590 
	C459.898499,300.021149 459.267609,301.857056 458.509430,303.607513 
	C456.599091,308.018158 455.081573,312.638367 452.773010,316.825226 
	C450.769073,320.459534 451.809570,323.446442 453.230804,326.692780 
	C455.957123,332.920135 458.615875,339.177094 461.404846,345.801544 
M449.105072,344.526215 
	C450.179535,346.953705 451.221252,349.396362 452.338257,351.804108 
	C453.334229,353.950989 454.622223,355.492615 457.782288,353.393127 
	C454.354156,344.773041 451.469116,335.925385 447.337952,327.703827 
	C444.685730,322.425537 444.619720,318.190369 447.499115,313.289764 
	C449.393036,310.066315 451.228302,306.686340 451.701447,302.777496 
	C448.836975,301.661530 448.106323,303.539978 447.337219,305.467834 
	C445.616577,309.780914 444.035675,314.164520 442.036438,318.346588 
	C440.645386,321.256378 438.108093,322.872955 434.659668,322.163361 
	C431.165710,321.444427 431.917419,318.569885 431.694611,316.168793 
	C431.388763,312.873413 430.982452,309.587463 430.648682,306.294495 
	C430.442871,304.264160 429.299622,303.343597 427.322296,303.406128 
	C425.551331,303.462128 424.524109,304.430634 424.395264,306.173615 
	C424.285095,307.663483 424.237366,309.177307 424.367371,310.662567 
	C425.507538,323.690582 427.028656,336.687622 427.386780,349.778229 
	C427.426849,351.242828 428.016083,352.684082 428.212372,354.154602 
	C428.506042,356.354584 429.909698,356.784271 431.784760,356.611877 
	C433.564056,356.448242 434.513672,355.422760 434.583618,353.696716 
	C434.677917,351.369171 434.779266,349.027954 434.634277,346.707855 
	C434.405426,343.046417 435.300140,339.857330 437.666229,336.990784 
	C440.521149,333.531982 444.245148,333.825287 446.251465,337.889252 
	C447.203735,339.818146 447.925140,341.861023 449.105072,344.526215 
z"/>
<path fill="#FFFFFF" opacity="1.000000" stroke="none" 
	d="
M445.052734,224.570831 
	C449.009125,226.213959 451.211487,228.849747 452.391571,232.588593 
	C456.150848,244.498779 455.303040,255.770676 448.201843,266.313446 
	C447.290222,267.666870 446.021698,268.871613 445.961151,270.838379 
	C447.739288,272.458130 450.001678,271.385803 452.030487,271.693207 
	C453.335754,271.890991 455.366302,271.549500 455.842072,272.266113 
	C458.406097,276.128235 457.817993,280.781494 458.056274,285.098663 
	C458.250549,288.618347 454.629028,288.724182 452.149689,289.147705 
	C448.243378,289.814972 444.262543,289.288116 440.261597,289.920502 
	C434.071259,290.898956 427.797882,291.688110 421.444946,291.363281 
	C418.071960,291.190857 416.777924,289.853821 416.669098,286.504425 
	C416.469269,280.351166 417.525757,274.707825 421.185211,269.550537 
	C424.628510,264.697968 427.934418,259.765869 431.720367,255.152618 
	C434.015930,252.355423 436.157745,249.303772 436.699768,245.549393 
	C436.949463,243.819946 436.730072,241.949875 434.630371,241.627625 
	C432.901550,241.362320 432.028809,242.868591 431.519135,244.327332 
	C430.776215,246.453598 432.400269,249.458755 428.792267,250.508041 
	C424.352203,251.799332 419.916229,251.315643 415.459900,251.017853 
	C415.047577,250.990311 414.536224,250.585510 414.289978,250.211578 
	C410.719910,244.790710 417.670227,226.724686 424.265411,224.437836 
	C431.044159,222.087326 437.870789,221.692230 445.052734,224.570831 
M437.159180,286.473145 
	C440.203156,285.209076 443.414093,285.775391 446.551117,285.687927 
	C450.298889,285.583405 451.820648,283.955994 451.769958,280.099915 
	C451.719879,276.286865 450.035095,275.268097 446.544586,275.254547 
	C443.380096,275.242279 439.963745,276.299347 436.972931,274.161987 
	C437.157532,270.383118 439.382599,267.797455 441.234863,265.109497 
	C445.748810,258.558960 449.500000,251.700775 448.620575,243.441818 
	C447.919220,236.855515 446.070648,230.445206 439.377075,227.420883 
	C431.099670,223.680939 422.728302,228.914581 420.371552,239.110321 
	C419.729675,241.887299 417.176880,245.818481 421.215851,247.360611 
	C425.945007,249.166275 425.514648,244.165512 426.620361,241.573227 
	C428.479675,237.214172 431.609863,235.669495 437.319946,236.832764 
	C441.560303,237.696609 443.290039,240.680222 443.290192,244.813690 
	C443.290375,248.632706 441.658966,251.974213 439.652191,255.004898 
	C436.816528,259.287384 433.579132,263.304291 430.504639,267.428131 
	C427.029114,272.089722 423.755829,276.708740 422.806091,282.797058 
	C422.189270,286.751312 423.701019,287.757294 426.898376,287.619415 
	C430.030884,287.484375 433.146698,286.962677 437.159180,286.473145 
z"/>
<path fill="#FFFFFF" opacity="1.000000" stroke="none" 
	d="
M504.439697,233.012238 
	C507.317535,247.053864 507.184235,260.804932 505.255829,274.475708 
	C504.277924,281.408264 499.770294,284.606171 492.959869,285.338776 
	C488.345215,285.835205 483.771881,286.724640 479.101349,286.147217 
	C470.441864,285.076691 467.260864,278.863434 466.068909,271.439850 
	C464.311829,260.496368 463.198608,249.453369 462.725769,238.366180 
	C462.551666,234.283539 463.820221,230.502670 465.669678,226.919052 
	C467.135132,224.079559 469.519653,222.224335 472.649902,221.850067 
	C477.412720,221.280594 482.213684,220.835480 487.005981,220.746948 
	C498.052582,220.542908 500.234619,222.141296 504.439697,233.012238 
M487.481750,281.717682 
	C495.578308,280.601562 498.154297,278.170868 499.724060,270.351959 
	C501.853638,259.744659 500.923035,249.094315 499.182220,238.655869 
	C497.119110,226.284637 493.864319,224.322296 481.350372,225.271790 
	C471.930573,225.986526 467.312347,231.530136 468.358917,240.858871 
	C469.355042,249.738068 470.339172,258.618622 471.340790,267.497162 
	C472.387085,276.771606 479.113953,283.015717 487.481750,281.717682 
z"/>
<path fill="#FFFFFF" opacity="1.000000" stroke="none" 
	d="
M331.250427,311.716248 
	C327.096649,322.598022 320.341766,330.653534 309.130341,333.370911 
	C285.627625,339.067444 267.371033,324.436188 266.586914,302.309570 
	C265.987518,285.395203 276.072418,273.108948 288.931366,269.731842 
	C316.065369,262.605682 337.835724,284.098969 331.250427,311.716248 
M317.269073,286.179535 
	C312.687103,278.520325 304.937592,276.259155 297.151764,276.782227 
	C286.728821,277.482422 279.612305,283.685181 276.187531,293.936920 
	C272.678619,304.440643 276.731476,313.336517 285.988281,320.813660 
	C292.844543,326.351746 304.321228,326.072876 312.083588,320.533752 
	C323.824402,312.155670 326.472870,296.347809 317.269073,286.179535 
z"/>
<path fill="#FFFFFF" opacity="1.000000" stroke="none" 
	d="
M411.136475,147.460022 
	C408.889435,148.588043 406.933685,148.509979 405.007416,147.788528 
	C401.325287,146.409485 399.604584,142.184753 401.084839,138.274338 
	C402.336914,134.966614 407.020477,133.357300 411.413605,134.879974 
	C415.765778,136.388458 414.408478,139.873306 413.760132,142.833054 
	C413.421204,144.379990 412.250732,145.744751 411.136475,147.460022 
z"/>
<path fill="#FFFFFF" opacity="1.000000" stroke="none" 
	d="
M337.541382,121.004295 
	C333.501190,118.431969 332.595856,114.051033 334.921722,110.223763 
	C336.357758,107.860718 341.720123,106.556953 344.361267,108.261818 
	C347.944244,110.574638 346.079315,114.299339 346.107758,117.406670 
	C346.129456,119.782005 344.651367,121.412621 341.934143,121.287460 
	C340.609619,121.226448 339.284302,121.182442 337.541382,121.004295 
z"/>
<path fill="#FFFFFF" opacity="1.000000" stroke="none" 
	d="
M309.308594,93.083725 
	C309.236633,100.479790 308.862854,100.823647 301.969604,100.314095 
	C297.538147,99.986526 296.252441,97.942299 296.652374,92.772797 
	C296.909912,89.445030 298.793060,88.373390 301.595245,88.730881 
	C304.535309,89.105957 309.169220,86.544388 309.308594,93.083725 
z"/>
<path fill="#FFFFFF" opacity="1.000000" stroke="none" 
	d="
M375.579376,123.121429 
	C372.021332,123.461914 371.691010,121.465950 371.790405,119.072723 
	C371.870209,117.151184 372.205933,115.378754 374.436798,114.891106 
	C376.513367,114.437202 378.601257,114.812202 379.729980,116.638763 
	C381.005188,118.702339 379.626617,120.400070 378.065369,121.765968 
	C377.460083,122.295509 376.692352,122.639359 375.579376,123.121429 
z"/>
<path fill="#FFFFFF" opacity="1.000000" stroke="none" 
	d="
M263.099487,478.743469 
	C270.061035,479.035278 271.656799,480.443573 271.257660,485.535767 
	C270.874725,490.421082 268.044373,492.624207 262.905060,492.299591 
	C260.372955,492.139679 258.499481,491.209290 258.791412,488.535004 
	C259.177887,484.995056 256.877838,480.213593 263.099487,478.743469 
z"/>
<path fill="#FFFFFF" opacity="1.000000" stroke="none" 
	d="
M306.099243,500.046448 
	C309.425323,502.850342 309.137848,506.651825 307.669281,509.650940 
	C306.425781,512.190430 302.968292,512.241394 300.088013,511.908478 
	C294.596283,511.273621 295.850159,507.113342 295.681335,503.602966 
	C295.484192,499.503540 298.237183,499.639923 300.993378,499.674225 
	C302.323669,499.690796 303.653717,499.728668 305.426575,499.806549 
	C305.869263,499.856201 306.020538,499.985565 306.099243,500.046448 
z"/>
<path fill="#FFFFFF" opacity="1.000000" stroke="none" 
	d="
M184.028702,466.976715 
	C188.071213,464.168152 193.079025,465.071075 195.432739,468.709076 
	C197.548691,471.979553 196.024002,477.118103 192.244720,479.453369 
	C189.435532,481.189209 182.448395,479.453278 181.203781,476.416107 
	C179.754318,472.879150 182.109375,470.096466 184.028702,466.976715 
M186.884384,472.311737 
	C186.260818,473.873535 186.759109,475.012299 188.392517,475.257751 
	C189.433884,475.414215 190.255295,474.648499 190.527924,473.560059 
	C190.784164,472.537018 190.639816,471.558167 189.814972,470.816742 
	C188.307739,469.461884 187.922424,471.103760 186.884384,472.311737 
z"/>
<path fill="#FFFFFF" opacity="1.000000" stroke="none" 
	d="
M204.185333,460.672699 
	C201.682663,465.232239 193.981293,467.128784 191.594742,463.922729 
	C189.801270,461.513397 190.517410,458.604584 191.704971,455.927795 
	C192.844559,453.359192 194.207596,451.292786 197.554352,451.709900 
	C200.591888,452.088501 202.922241,453.404327 203.948456,456.336029 
	C204.366669,457.530792 204.169037,458.941132 204.185333,460.672699 
z"/>
<path fill="#FFFFFF" opacity="1.000000" stroke="none" 
	d="
M226.997086,477.010010 
	C229.360107,477.100250 232.683762,475.011444 233.288803,479.327057 
	C233.571823,481.345947 233.847275,483.895050 231.184586,484.902527 
	C229.197449,485.654358 227.005722,485.452637 225.596375,483.863770 
	C223.572418,481.582001 225.337219,479.557343 226.848160,477.307495 
	C227.034363,476.981567 227.007904,476.998901 226.997086,477.010010 
z"/>
<path fill="#FFFFFF" opacity="1.000000" stroke="none" 
	d="
M164.143631,313.296661 
	C163.406647,321.721954 153.312607,327.995453 145.962219,325.073090 
	C144.068909,324.320312 143.587570,322.751617 143.767075,321.053131 
	C144.257294,316.414825 141.485992,310.792725 145.199829,307.320435 
	C149.390442,303.402405 161.776016,307.626495 164.143631,313.296661 
M152.419342,310.326202 
	C148.779724,311.759552 148.169525,314.845551 150.449799,320.286987 
	C154.313873,319.600128 157.487869,317.536163 157.506607,315.269287 
	C157.529099,312.546143 156.404221,310.422913 152.419342,310.326202 
z"/>
<path fill="#FFFFFF" opacity="1.000000" stroke="none" 
	d="
M164.308075,335.953308 
	C166.331268,343.240143 164.395355,346.613464 157.561386,348.374573 
	C146.392761,351.252686 145.680405,350.704895 145.713425,339.263611 
	C145.732330,332.714508 145.738098,332.532043 152.242020,332.737549 
	C156.338074,332.867004 161.013199,331.176056 164.308075,335.953308 
M158.060242,338.348358 
	C157.536835,337.967773 157.053787,337.505951 156.482346,337.222015 
	C154.839157,336.405548 152.748718,335.433960 151.770874,337.551727 
	C150.854828,339.535675 150.421326,342.382935 152.244766,343.988647 
	C154.014908,345.547363 155.855133,343.657928 157.367859,342.485840 
	C158.499222,341.609222 158.817398,340.355072 158.060242,338.348358 
z"/>
<path fill="#FFFFFF" opacity="1.000000" stroke="none" 
	d="
M107.172989,254.249603 
	C107.214333,256.825562 107.695198,259.462708 104.840561,259.986633 
	C102.150444,260.480377 99.013214,261.289154 96.750587,259.102753 
	C94.773422,257.192139 95.606277,254.617783 96.958199,252.665787 
	C98.690292,250.164871 98.324883,245.441284 103.016907,245.873428 
	C108.150887,246.346283 105.319588,251.366898 107.172989,254.249603 
z"/>
<path fill="#FFFFFF" opacity="1.000000" stroke="none" 
	d="
M495.296539,251.271088 
	C495.311340,256.903992 495.402374,262.066010 495.294098,267.223846 
	C495.185181,272.412140 493.455231,273.922974 488.427216,274.350983 
	C477.958618,275.242126 475.361908,271.431702 474.638916,261.535797 
	C474.241547,256.097107 473.361389,250.694000 472.949371,245.255859 
	C472.644501,241.232254 472.938293,237.035049 476.253937,234.257507 
	C479.958740,231.153915 484.572571,230.853348 489.021454,232.360428 
	C493.755249,233.964005 493.011810,238.834625 494.110016,242.456940 
	C494.915039,245.112122 494.922485,248.009140 495.296539,251.271088 
M487.927765,243.391724 
	C487.855621,242.733597 487.746887,242.077072 487.717682,241.417038 
	C487.601746,238.798325 487.136627,235.964050 484.048828,235.844147 
	C481.118225,235.730347 479.408691,238.154861 478.635345,240.867920 
	C478.281738,242.108459 478.201141,243.520035 478.376038,244.802338 
	C479.265015,251.321136 480.272644,257.823853 481.250641,264.330383 
	C481.663483,267.077057 482.520203,270.194366 485.687958,269.953918 
	C489.072174,269.696960 489.490479,266.298706 489.654053,263.429993 
	C490.022522,256.966675 488.703247,250.620544 487.927765,243.391724 
z"/>
</svg>